<?xml version="1.0" encoding="iso-8859-1"?>
<!-- Generator: Adobe Illustrator 19.0.0, SVG Export Plug-In . SVG Version: 6.00 Build 0)  -->
<svg version="1.1" id="Layer_1" xmlns="http://www.w3.org/2000/svg" xmlns:xlink="http://www.w3.org/1999/xlink" x="0px" y="0px"
	 viewBox="0 0 512 512" style="enable-background:new 0 0 512 512;" xml:space="preserve">
<g>
	<g>
		<path d="M487.467,60.8h-35.2V25.6c0-4.717-2.754-7.467-7.467-7.467h-34.133c-4.713,0-9.6,2.75-9.6,7.467v35.2H368
			c-4.713,0-9.6,2.75-9.6,7.467V102.4c0,4.717,4.887,9.6,9.6,9.6h33.067v33.067c0,4.717,4.888,9.6,9.6,9.6H444.8
			c4.713,0,7.467-4.883,7.467-9.6V112h35.2c4.713,0,7.467-4.883,7.467-9.6V68.267C494.933,63.55,492.179,60.8,487.467,60.8z
			 M477.867,94.933H444.8c-4.713,0-9.6,2.75-9.6,7.467v35.2h-17.067v-35.2c0-4.717-2.754-7.467-7.467-7.467h-35.2V77.867h35.2
			c4.713,0,7.467-4.883,7.467-9.6V35.2H435.2v33.067c0,4.717,4.887,9.6,9.6,9.6h33.067V94.933z"/>
	</g>
</g>
<g>
	<g>
		<path d="M469.333,165.025c-4.713,0-8.533,3.817-8.533,8.533v142.2c0,4.692-2.787,9.575-7.525,9.575H43.792
			c-4.737,0-9.658-4.9-9.658-9.617v-238.9c0-4.717,4.888-7.483,9.587-7.483h281.613c4.713,0,8.533-3.817,8.533-8.533
			c0-4.717-3.821-8.533-8.533-8.533h-60.8V8.533C264.533,3.817,260.713,0,256,0s-8.533,3.817-8.533,8.533v43.733H43.721
			c-14.108,0-26.654,10.425-26.654,24.55v238.9c0,14.125,12.575,26.683,26.725,26.683h192.675L123.033,455.3
			c-3.333,3.333-3.333,8.467,0,11.8c1.667,1.667,3.85,2.367,6.033,2.367s3.833-0.9,5.5-2.567l112.9-113.5v150.067
			c0,4.717,3.821,8.533,8.533,8.533s8.533-3.817,8.533-8.533V353.4L378.5,466.833c1.667,1.667,4.117,2.5,6.3,2.5
			s4.5-0.833,6.167-2.5c3.333-3.333,3.4-8.2,0.067-11.533L277.667,342.4h175.609c14.15,0,24.592-12.542,24.592-26.642v-142.2
			C477.867,168.842,474.046,165.025,469.333,165.025z"/>
	</g>
</g>
<g>
	<g>
		<path d="M325.333,103.467h-93.867c-4.713,0-8.533,3.817-8.533,8.533c0,4.717,3.821,8.533,8.533,8.533h93.867
			c4.713,0,8.533-3.817,8.533-8.533C333.867,107.283,330.046,103.467,325.333,103.467z"/>
	</g>
</g>
<g>
	<g>
		<path d="M419.2,188.8H368c-4.713,0-8.533,3.817-8.533,8.533c0,4.717,3.821,8.533,8.533,8.533h51.2
			c4.713,0,8.533-3.817,8.533-8.533C427.733,192.617,423.913,188.8,419.2,188.8z"/>
	</g>
</g>
<g>
	<g>
		<path d="M419.2,231.467H368c-4.713,0-8.533,3.817-8.533,8.533c0,4.717,3.821,8.533,8.533,8.533h51.2
			c4.713,0,8.533-3.817,8.533-8.533C427.733,235.283,423.913,231.467,419.2,231.467z"/>
	</g>
</g>
<g>
	<g>
		<path d="M419.2,274.133H368c-4.713,0-8.533,3.817-8.533,8.533s3.821,8.533,8.533,8.533h51.2c4.713,0,8.533-3.817,8.533-8.533
			S423.913,274.133,419.2,274.133z"/>
	</g>
</g>
<g>
	<g>
		<path d="M325.333,146.133h-93.867c-4.713,0-8.533,3.817-8.533,8.533c0,4.717,3.821,8.533,8.533,8.533h93.867
			c4.713,0,8.533-3.817,8.533-8.533C333.867,149.95,330.046,146.133,325.333,146.133z"/>
	</g>
</g>
<g>
	<g>
		<path d="M325.333,188.8h-93.867c-4.713,0-8.533,3.817-8.533,8.533c0,4.717,3.821,8.533,8.533,8.533h93.867
			c4.713,0,8.533-3.817,8.533-8.533C333.867,192.617,330.046,188.8,325.333,188.8z"/>
	</g>
</g>
<g>
	<g>
		<path d="M325.333,231.467h-93.867c-4.713,0-8.533,3.817-8.533,8.533c0,4.717,3.821,8.533,8.533,8.533h93.867
			c4.713,0,8.533-3.817,8.533-8.533C333.867,235.283,330.046,231.467,325.333,231.467z"/>
	</g>
</g>
<g>
	<g>
		<path d="M325.333,274.133h-93.867c-4.713,0-8.533,3.817-8.533,8.533s3.821,8.533,8.533,8.533h93.867
			c4.713,0,8.533-3.817,8.533-8.533S330.046,274.133,325.333,274.133z"/>
	</g>
</g>
<g>
	<g>
		<path d="M138.525,183.533c-18.487-2.308-26.592-4.067-26.592-21.4c0-9.25,2.567-15.508,7.779-19.133
			c12.875-8.925,39.75-1.917,49.017,1.525c4.421,1.658,9.342-0.592,10.983-5.008c1.65-4.408-1.113-9.317-5.521-10.975
			C171.9,127.683,160,123.371,145.067,122v-18.533H128v18.635c-6.4,0.892-12.864,2.964-18.492,6.864
			c-6.891,4.775-14.842,14.408-14.842,33.167c0,33.133,25.171,36.267,41.742,38.333c18.487,2.308,26.725,4.067,26.725,21.4
			c0,9.25-2.5,15.508-7.712,19.133c-12.862,8.95-39.708,1.925-48.983-1.525c-4.413-1.633-9.321,0.592-10.967,5.008
			c-1.65,4.408,0.054,9.317,4.462,10.975c2.294,0.86,15.267,5.154,28.067,6.527v20.681h17.067v-20.846
			c8.533-0.892,13.935-2.89,19.558-6.787c6.892-4.775,15.375-14.408,15.375-33.167C180,188.733,155.096,185.6,138.525,183.533z"/>
	</g>
</g>
<g>
</g>
<g>
</g>
<g>
</g>
<g>
</g>
<g>
</g>
<g>
</g>
<g>
</g>
<g>
</g>
<g>
</g>
<g>
</g>
<g>
</g>
<g>
</g>
<g>
</g>
<g>
</g>
<g>
</g>
</svg>
