<svg id="Layer_1" data-name="Layer 1" xmlns="http://www.w3.org/2000/svg" viewBox="0 0 16 16"><defs><style>.cls-1{fill:#3d3d3d;}.cls-2,.cls-4{fill:none;}.cls-3{fill:#fff;}.cls-4{stroke:#3d3d3d;stroke-linecap:round;stroke-linejoin:round;stroke-width:0.75px;}</style></defs><path class="cls-1" d="M2.49,9.66c0,.23.36.37.95.37H5.5a4.65,4.65,0,0,1,.08-.75H3.46C2.86,9.28,2.49,9.43,2.49,9.66Z"/><circle class="cls-2" cx="10.89" cy="10.23" r="4.42"/><path class="cls-2" d="M12.47,14.56a4.6,4.6,0,0,0,0-8.66q0,4.24,0,8.49C12.49,14.45,12.47,14.5,12.47,14.56Z"/><path class="cls-1" d="M7.6,6a1.28,1.28,0,0,0,.56-.13c.17-.08.21-.21.13-.34A6.71,6.71,0,0,0,7.58,6Z"/><path class="cls-2" d="M11.62,4.88a1.15,1.15,0,0,0-1.07-.7H9.09a.36.36,0,0,1-.4-.35c0-.53,0-1.06,0-1.58a.37.37,0,0,1,.38-.36.4.4,0,0,1,.37.37V3.41a4.35,4.35,0,0,1,2.16.3,2.1,2.1,0,0,0-.12-.28,5.18,5.18,0,0,0-1.37-1.61,2.87,2.87,0,0,0-1.94-.69H1.57c-.38,0-.5.11-.5.48V14.38c0,.33.13.46.46.46H8.1a5.48,5.48,0,0,1-2.28-2.78H3.44c-.59,0-.94-.14-.95-.37s.37-.39,1-.39H5.61a5.4,5.4,0,0,1-.12-1.07c0-.07,0-.13,0-.2H3.44c-.59,0-.94-.14-.95-.37s.37-.38,1-.38H5.58A5.43,5.43,0,0,1,6,8H3.44c-.59,0-.94-.14-.95-.37s.37-.39,1-.39H6.39A5.58,5.58,0,0,1,7.58,6C6.86,6,6.13,6,5.41,6H3.25c-.47,0-.76-.14-.76-.37s.3-.39.78-.39H7.61a.82.82,0,0,1,.66.23s0,0,0,0a5.35,5.35,0,0,1,2.6-.67A4.4,4.4,0,0,1,11.62,4.88Z"/><path class="cls-1" d="M7.61,5.21H3.27c-.48,0-.78.15-.78.39s.29.37.76.37H5.41c.72,0,1.45,0,2.17,0a6.71,6.71,0,0,1,.71-.47s0,0,0,0A.82.82,0,0,0,7.61,5.21Z"/><path class="cls-1" d="M2.49,7.63c0,.23.36.37.95.37H6a5.63,5.63,0,0,1,.42-.76H3.46C2.86,7.24,2.49,7.39,2.49,7.63Z"/><path class="cls-1" d="M2.49,11.69c0,.23.36.37.95.37H5.82a5,5,0,0,1-.21-.76H3.46C2.86,11.3,2.49,11.45,2.49,11.69Z"/><path class="cls-1" d="M10.89,14.85h0Z"/><path class="cls-1" d="M1.53,14.84c-.33,0-.46-.13-.46-.46V1.62c0-.37.12-.48.5-.48h6.6a2.87,2.87,0,0,1,1.94.69,5.18,5.18,0,0,1,1.37,1.61,2.1,2.1,0,0,1,.12.28,4.35,4.35,0,0,0-2.16-.3V2.26a.4.4,0,0,0-.37-.37.37.37,0,0,0-.38.36c0,.52,0,1,0,1.58a.36.36,0,0,0,.4.35h1.46a1.15,1.15,0,0,1,1.07.7,6.09,6.09,0,0,1,.87.18V4.6a3.41,3.41,0,0,0-.44-1.74,6.31,6.31,0,0,0-1.46-1.63A3.53,3.53,0,0,0,8.2.37C6,.38,3.76.39,1.54.37A1.19,1.19,0,0,0,.3,1.62C.31,3.75.3,5.87.3,8v6.39A1.13,1.13,0,0,0,1.48,15.6h8.84a5.43,5.43,0,0,1-2.22-.76Z"/><path class="cls-3" d="M11.26,14.84a.63.63,0,0,0,.26-.05,4.4,4.4,0,0,1-.51.05Z"/><path class="cls-1" d="M10.89,15a4.82,4.82,0,1,1,4.81-4.81A4.82,4.82,0,0,1,10.89,15Zm0-8.85a4,4,0,1,0,4,4A4,4,0,0,0,10.89,6.19Z"/><polyline class="cls-4" points="8.54 10.19 10.37 12.21 13.25 8.73"/></svg>