<svg id="Layer_1" data-name="Layer 1" xmlns="http://www.w3.org/2000/svg" viewBox="0 0 16 16"><defs><style>.cls-1{fill:#3d3d3d;}</style></defs><path class="cls-1" d="M2,8C2,5.92,2,3.82,2,1.73A1.18,1.18,0,0,1,3.22.5c2.19,0,4.37,0,6.56,0a3.58,3.58,0,0,1,2.36.84A6.46,6.46,0,0,1,13.57,3,3.43,3.43,0,0,1,14,4.66v9.65a1.12,1.12,0,0,1-1.18,1.19H3.16A1.12,1.12,0,0,1,2,14.3C2,12.2,2,10.11,2,8ZM13.12,3.79A2.07,2.07,0,0,0,13,3.52a5.08,5.08,0,0,0-1.35-1.6,2.83,2.83,0,0,0-1.91-.67c-2.17,0-4.34,0-6.5,0-.37,0-.49.12-.49.48V14.29c0,.33.13.46.45.46h9.58c.33,0,.46-.13.46-.46,0-3,0-6,0-9a.75.75,0,0,0,0-.21,1.13,1.13,0,0,0-1.13-.87H10.65a.35.35,0,0,1-.39-.34q0-.78,0-1.56A.37.37,0,0,1,10.63,2a.39.39,0,0,1,.37.36V3.49A4.32,4.32,0,0,1,13.12,3.79Z"/><path class="cls-1" d="M5.31,6.41l.82-1L6.44,5A.38.38,0,0,1,7,5,.36.36,0,0,1,7,5.5L5.6,7.24a.37.37,0,0,1-.59,0c-.27-.32-.53-.64-.79-1a.38.38,0,0,1,0-.56.38.38,0,0,1,.54.1C5,6,5.14,6.19,5.31,6.41Z"/><path class="cls-1" d="M5.31,9.41,6.39,8.09a.44.44,0,0,1,.37-.21.38.38,0,0,1,.32.21A.37.37,0,0,1,7,8.51c-.27.32-.53.65-.79,1l-.59.72a.38.38,0,0,1-.65,0l-.76-.92a.41.41,0,0,1,0-.57.4.4,0,0,1,.56.09Z"/><path class="cls-1" d="M5.31,12.41l1.11-1.36c.11-.13.25-.22.4-.15a.49.49,0,0,1,.27.26.37.37,0,0,1-.07.33c-.46.58-.93,1.16-1.4,1.73a.37.37,0,0,1-.62,0c-.27-.31-.53-.64-.79-1a.37.37,0,0,1,0-.53.38.38,0,0,1,.55.06Z"/><path class="cls-1" d="M9.71,8.75H11c.33,0,.54.32.35.57A.46.46,0,0,1,11,9.5H8.4a.38.38,0,1,1,0-.75Z"/><path class="cls-1" d="M9.69,6.5H8.44C8.17,6.5,8,6.36,8,6.13s.17-.38.45-.38H11a.38.38,0,0,1,.38.23.3.3,0,0,1-.06.39.55.55,0,0,1-.33.12C10.53,6.51,10.11,6.5,9.69,6.5Z"/><path class="cls-1" d="M9.69,12.5H8.42A.38.38,0,0,1,8,12.13a.37.37,0,0,1,.42-.37H11a.37.37,0,0,1,.42.37.39.39,0,0,1-.43.37Z"/></svg>