<svg id="Layer_1" data-name="Layer 1" xmlns="http://www.w3.org/2000/svg" viewBox="0 0 16 16"><defs><style>.cls-1{fill:#3d3d3d;}</style></defs><path class="cls-1" d="M2.07,8.08A.39.39,0,0,1,1.79,8a.37.37,0,0,1,0-.53L6.67,3.17a.37.37,0,0,1,.51,0L9.43,5.34l3.66-4.09H10.45a.38.38,0,0,1,0-.75h3.48a.39.39,0,0,1,.34.22.38.38,0,0,1-.06.41l-4.47,5a.41.41,0,0,1-.27.13.43.43,0,0,1-.28-.11L6.91,4,2.32,8A.35.35,0,0,1,2.07,8.08Z"/><path class="cls-1" d="M13.93,5a.37.37,0,0,1-.38-.37V.88a.38.38,0,1,1,.75,0V4.59A.37.37,0,0,1,13.93,5Z"/><path class="cls-1" d="M4.29,15.5H2.37A.37.37,0,0,1,2,15.12V9.62a.37.37,0,0,1,.37-.38H4.29a.37.37,0,0,1,.37.38v5.5A.37.37,0,0,1,4.29,15.5Zm-1.54-.75H3.91V10H2.75Z"/><path class="cls-1" d="M9,15.5H7a.37.37,0,0,1-.37-.38V7.7A.37.37,0,0,1,7,7.32H9a.37.37,0,0,1,.37.38v7.42A.37.37,0,0,1,9,15.5Zm-1.54-.75H8.58V8.08H7.42Z"/><path class="cls-1" d="M13.72,15.5H11.8a.38.38,0,0,1-.37-.38V6.74a.38.38,0,0,1,.37-.37h1.92a.37.37,0,0,1,.37.37v8.38A.37.37,0,0,1,13.72,15.5Zm-1.54-.75h1.16V7.12H12.18Z"/></svg>