<svg id="Ñëîé_1" data-name="Ñëîé 1" xmlns="http://www.w3.org/2000/svg" viewBox="0 0 232 66"><defs><style>.cls-1,.cls-6{fill:#fff;}.cls-1{stroke:#fff;stroke-miterlimit:10;stroke-width:1.27px;}.cls-2{fill:#f1fafc;}.cls-3{fill:#d15f45;}.cls-3,.cls-4,.cls-5{fill-rule:evenodd;}.cls-3,.cls-4{opacity:0.9;}.cls-4{fill:#f4c040;}.cls-5{fill:#4ba5a5;}.cls-6{font-size:12.64px;font-family:CourierNewPS-BoldMT, Courier New;font-weight:700;}</style></defs><path class="cls-1" d="M79.76,20.25V24a13.5,13.5,0,0,1,4-3.37,10.5,10.5,0,0,1,5-1.13,11.5,11.5,0,0,1,5.64,1.43,10,10,0,0,1,4,4,10.8,10.8,0,0,1,1.42,5.35,10.3,10.3,0,0,1-3.19,7.61A10.66,10.66,0,0,1,88.74,41a10.8,10.8,0,0,1-9-4.5V49h5a1.6,1.6,0,0,1,1.06.28,1,1,0,0,1,0,1.49,1.54,1.54,0,0,1-1.06.29H74.92a1.57,1.57,0,0,1-1.06-.28,1,1,0,0,1,0-1.5A1.57,1.57,0,0,1,74.92,49h2.77V22.34H74.92a1.56,1.56,0,0,1-1.06-.29,1,1,0,0,1-.32-.77,1,1,0,0,1,.32-.74,1.56,1.56,0,0,1,1.06-.29Zm17.91,10a8.26,8.26,0,0,0-2.6-6.11,9.17,9.17,0,0,0-12.7,0,8.46,8.46,0,0,0,0,12.22,9.17,9.17,0,0,0,12.69,0A8.28,8.28,0,0,0,97.67,30.26Z"/><path class="cls-1" d="M119.17,41.55v-3a14.68,14.68,0,0,1-9.62,3.79,8.38,8.38,0,0,1-5.8-1.88,5.94,5.94,0,0,1-2.09-4.61,6.59,6.59,0,0,1,2.75-5.24q2.76-2.23,8-2.24a26.78,26.78,0,0,1,3.1.19c1.12.12,2.32.31,3.62.57V25.81a3.69,3.69,0,0,0-1.58-2.95,7.45,7.45,0,0,0-4.72-1.26,24,24,0,0,0-6.76,1.4,4.48,4.48,0,0,1-1,.25.94.94,0,0,1-.68-.29,1,1,0,0,1-.28-.74.9.9,0,0,1,.25-.67,8.62,8.62,0,0,1,2.78-1,24.9,24.9,0,0,1,5.8-1,8.94,8.94,0,0,1,6.1,1.93,5.74,5.74,0,0,1,2.19,4.37V39.48H124a1.65,1.65,0,0,1,1.09.29,1,1,0,0,1,.32.75,1,1,0,0,1-.32.73,1.6,1.6,0,0,1-1.09.3Zm0-10.28a20.47,20.47,0,0,0-3.08-.62,28.62,28.62,0,0,0-3.41-.19,11.29,11.29,0,0,0-7,1.94,4.25,4.25,0,0,0-1.92,3.47A4,4,0,0,0,105.19,39a6.29,6.29,0,0,0,4.26,1.28,11.69,11.69,0,0,0,5-1.07,17.92,17.92,0,0,0,4.74-3.41Z"/><path class="cls-1" d="M133.68,20.25v3.12a14.93,14.93,0,0,1,3.91-3,9,9,0,0,1,3.94-.84,9.21,9.21,0,0,1,4.3,1,7.08,7.08,0,0,1,2.5,2.45,6.38,6.38,0,0,1,1.12,3.5v13h1.74a1.56,1.56,0,0,1,1.06.29,1,1,0,0,1,.32.75,1,1,0,0,1-.32.73,1.51,1.51,0,0,1-1.06.3h-5.53a1.55,1.55,0,0,1-1.08-.3.92.92,0,0,1-.32-.73.93.93,0,0,1,.32-.75,1.61,1.61,0,0,1,1.08-.29h1.72V26.82a4.87,4.87,0,0,0-1.6-3.7,6,6,0,0,0-4.28-1.52,7.24,7.24,0,0,0-3.54.83,18.92,18.92,0,0,0-4.28,4.09v13H136a1.6,1.6,0,0,1,1.06.29,1,1,0,0,1,.32.75,1,1,0,0,1-.32.73,1.54,1.54,0,0,1-1.06.3h-6.74a1.53,1.53,0,0,1-1.06-.3,1,1,0,0,1-.32-.73,1,1,0,0,1,.32-.75,1.58,1.58,0,0,1,1.06-.29h2.34V22.34h-1.75a1.58,1.58,0,0,1-1.06-.29,1,1,0,0,1-.32-.77,1,1,0,0,1,.32-.74,1.58,1.58,0,0,1,1.06-.29Z"/><path class="cls-1" d="M172.41,24V20.25h4.85a1.55,1.55,0,0,1,1.05.29,1,1,0,0,1,.32.77,1,1,0,0,1-.32.74,1.55,1.55,0,0,1-1.05.29h-2.78V43a7.63,7.63,0,0,1-.89,3.69,8.1,8.1,0,0,1-2,2.23,10.67,10.67,0,0,1-2.5,1.65,7.73,7.73,0,0,1-3,.49h-5.85a1.57,1.57,0,0,1-1.06-.28,1,1,0,0,1-.32-.75,1,1,0,0,1,.32-.76,1.51,1.51,0,0,1,1.06-.3l5.92,0a5.94,5.94,0,0,0,3.29-.94,7.13,7.13,0,0,0,2.42-2.73,5.64,5.64,0,0,0,.54-2.63v-6.2A10.15,10.15,0,0,1,163.85,41a9.91,9.91,0,0,1-7.34-3.16,10.48,10.48,0,0,1-3.09-7.61,10.45,10.45,0,0,1,3.09-7.6,9.94,9.94,0,0,1,7.34-3.15A10.18,10.18,0,0,1,172.41,24Zm0,6.22a8.39,8.39,0,0,0-2.49-6.15,8.16,8.16,0,0,0-6-2.51A8.05,8.05,0,0,0,158,24.12a8.41,8.41,0,0,0-2.49,6.14A8.43,8.43,0,0,0,158,36.42a8.31,8.31,0,0,0,11.92,0A8.43,8.43,0,0,0,172.41,30.26Z"/><path class="cls-1" d="M202.82,31.39h-21a10,10,0,0,0,3.36,6.46,10.24,10.24,0,0,0,7,2.45,16.69,16.69,0,0,0,4.84-.77,12.68,12.68,0,0,0,4.14-2,1.37,1.37,0,0,1,.81-.37,1,1,0,0,1,.69.3,1.05,1.05,0,0,1,.29.73,1.15,1.15,0,0,1-.39.81,11,11,0,0,1-4.2,2.3,18.39,18.39,0,0,1-6.18,1.07,12.18,12.18,0,0,1-8.87-3.48,11.35,11.35,0,0,1-3.55-8.42A10.39,10.39,0,0,1,183,22.73a11.43,11.43,0,0,1,8.25-3.22,11.21,11.21,0,0,1,8.34,3.31A11.48,11.48,0,0,1,202.82,31.39Zm-2.09-2.09a9,9,0,0,0-3.23-5.56,10.18,10.18,0,0,0-12.46,0,9.07,9.07,0,0,0-3.25,5.58Z"/><path class="cls-1" d="M223.27,41.55v-3a14.68,14.68,0,0,1-9.62,3.79,8.36,8.36,0,0,1-5.8-1.88,6,6,0,0,1-2.1-4.61,6.6,6.6,0,0,1,2.76-5.24q2.76-2.23,8-2.24a26.78,26.78,0,0,1,3.1.19c1.12.12,2.32.31,3.62.57V25.81a3.69,3.69,0,0,0-1.58-2.95A7.45,7.45,0,0,0,217,21.6a24,24,0,0,0-6.76,1.4,4.48,4.48,0,0,1-1,.25.94.94,0,0,1-.68-.29,1,1,0,0,1-.28-.74.93.93,0,0,1,.24-.67,8.73,8.73,0,0,1,2.78-1,25,25,0,0,1,5.81-1,8.94,8.94,0,0,1,6.1,1.93,5.74,5.74,0,0,1,2.19,4.37V39.48h2.75a1.61,1.61,0,0,1,1.08.29.93.93,0,0,1,.32.75.92.92,0,0,1-.32.73,1.55,1.55,0,0,1-1.08.3Zm0-10.28a20.72,20.72,0,0,0-3.08-.62,28.67,28.67,0,0,0-3.42-.19,11.28,11.28,0,0,0-7,1.94,4.25,4.25,0,0,0-1.92,3.47A4.06,4.06,0,0,0,209.28,39a6.33,6.33,0,0,0,4.27,1.28,11.69,11.69,0,0,0,5-1.07,18.08,18.08,0,0,0,4.74-3.41Z"/><circle class="cls-2" cx="52.42" cy="26.75" r="7.54"/><circle class="cls-2" cx="19.45" cy="26.75" r="7.54"/><path class="cls-3" d="M65.34,13.05c-.48-.48-1-.92-1.43-1.33a18.22,18.22,0,0,0-23,0c-.49.41-1,.85-1.45,1.33A17.56,17.56,0,0,0,34.11,26a17.82,17.82,0,0,0,4.56,12.11l.09.07.72.74a11.25,11.25,0,0,0,2.08,1.86l10.95,10,1.58-1.54c.09-.06,10-9,10-9a12.46,12.46,0,0,0,1.26-1.26A17.71,17.71,0,0,0,70.7,26,17.55,17.55,0,0,0,65.34,13.05Zm-7.62,19a7.08,7.08,0,0,1-5.32,2.23A7.33,7.33,0,0,1,47,32.05a7.2,7.2,0,0,1-2.15-5.28,7.35,7.35,0,0,1,7.52-7.56,7.24,7.24,0,0,1,5.32,2.15A7.38,7.38,0,0,1,60,26.77,7.05,7.05,0,0,1,57.72,32.05Z"/><path class="cls-4" d="M32.37,13.05c-.48-.48-1-.92-1.44-1.33A17.54,17.54,0,0,0,19.42,7.64,17.43,17.43,0,0,0,8,11.72c-.49.41-1,.85-1.46,1.33A17.59,17.59,0,0,0,1.14,26,17.82,17.82,0,0,0,5.7,38.06l.09.07.71.74a11.3,11.3,0,0,0,2.09,1.86l10.94,10,1.59-1.54c.08-.06,10-9,10-9a14.94,14.94,0,0,0,1.26-1.26A17.75,17.75,0,0,0,37.73,26,17.59,17.59,0,0,0,32.37,13.05Zm-7.63,19a7.07,7.07,0,0,1-5.32,2.23,7.31,7.31,0,0,1-5.36-2.23,7.2,7.2,0,0,1-2.15-5.28,7.35,7.35,0,0,1,7.51-7.56,7.22,7.22,0,0,1,5.32,2.15A7.35,7.35,0,0,1,27,26.77,7,7,0,0,1,24.74,32.05Z"/><path class="cls-5" d="M50.6,8.2c-.54-.53-1.08-1-1.62-1.49A19.84,19.84,0,0,0,36,2.1,19.69,19.69,0,0,0,23.05,6.71c-.55.46-1.1,1-1.64,1.49a19.84,19.84,0,0,0-6.05,14.56A20.15,20.15,0,0,0,20.5,36.44l.1.07c.26.28.53.55.81.83a12.46,12.46,0,0,0,2.35,2.11L36.11,50.72,37.9,49c.1-.06,11.28-10.22,11.28-10.22a14.6,14.6,0,0,0,1.42-1.42,20,20,0,0,0,6-14.58A19.88,19.88,0,0,0,50.6,8.2ZM42,29.65a8,8,0,0,1-6,2.52,8.26,8.26,0,0,1-6.05-2.52,8.09,8.09,0,0,1-2.43-6A8.31,8.31,0,0,1,36,15.16a8.12,8.12,0,0,1,6,2.43,8.29,8.29,0,0,1,2.53,6.1A7.92,7.92,0,0,1,42,29.65Z"/><circle class="cls-2" cx="35.97" cy="23.7" r="8.49"/><text class="cls-6" transform="translate(73.37 63.49)">Translation Experts</text></svg>