<svg id="Layer_1" data-name="Layer 1" xmlns="http://www.w3.org/2000/svg" viewBox="0 0 18 18"><defs><style>.cls-1{fill:#3d3d3d;}</style></defs><path class="cls-1" d="M14.82,8.43a8,8,0,0,0-.16-.85A5.63,5.63,0,0,0,10,3.28,5.61,5.61,0,0,0,4.11,5.82a.74.74,0,0,1-.27.23.31.31,0,0,1-.38-.12.34.34,0,0,1,0-.42,12.41,12.41,0,0,1,1-1.24A6.33,6.33,0,0,1,8.32,2.52a6.52,6.52,0,0,1,7.09,5.29c.05.22.08.45.12.71l.15-.14.7-.7a.36.36,0,0,1,.51,0,.35.35,0,0,1,0,.52c-.47.48-.95,1-1.43,1.43a.35.35,0,0,1-.53,0q-.72-.7-1.41-1.41a.35.35,0,0,1,0-.52.37.37,0,0,1,.52,0l.65.65.13.11Z"/><path class="cls-1" d="M2.44,9.48c-.27.28-.53.55-.8.81a.49.49,0,0,1-.23.14.32.32,0,0,1-.36-.16.33.33,0,0,1,0-.41l.13-.14L2.5,8.44a.37.37,0,0,1,.6,0L4.47,9.8a.35.35,0,0,1,0,.54A.36.36,0,0,1,4,10.29l-.62-.61-.13-.12-.05,0c.06.28.09.58.17.85a5.72,5.72,0,0,0,4.59,4.3,5.79,5.79,0,0,0,5.94-2.51.72.72,0,0,1,.26-.26.3.3,0,0,1,.38.1.32.32,0,0,1,0,.41c-.18.26-.36.53-.56.77a6.41,6.41,0,0,1-4.05,2.21,6.52,6.52,0,0,1-7.21-4.69C2.6,10.35,2.54,9.93,2.44,9.48Z"/></svg>