<svg id="Layer_1" data-name="Layer 1" xmlns="http://www.w3.org/2000/svg" viewBox="0 0 18 18"><defs><style>.cls-1{fill:none;stroke:#3d3d3d;stroke-miterlimit:10;stroke-width:0.7px;}.cls-2{fill:#3d3d3d;}</style></defs><circle class="cls-1" cx="9" cy="9" r="7.81"/><path class="cls-2" d="M8.86,7.14a.75.75,0,0,1,.73.41,2.06,2.06,0,0,1,.21,1v4.74c0,.32.16.47.36.47a.79.79,0,0,0,.47-.22l.35-.28a3.48,3.48,0,0,1-.82,1,1.47,1.47,0,0,1-.93.31.83.83,0,0,1-.71-.37,1.43,1.43,0,0,1-.27-.87v-5C8.25,8.11,8.17,8,8,8a2,2,0,0,0-1,.58,2.2,2.2,0,0,1,.69-.88A1.77,1.77,0,0,1,8.86,7.14Zm.22-3.67a.92.92,0,0,1,.7.3,1.12,1.12,0,0,1,.29.83,1.08,1.08,0,0,1-.5.93,1.75,1.75,0,0,1-.92.33.56.56,0,0,1-.53-.38A2.16,2.16,0,0,1,8,4.6a1.11,1.11,0,0,1,.3-.89A1.3,1.3,0,0,1,9.08,3.47Z"/></svg>