<svg id="Layer_1" data-name="Layer 1" xmlns="http://www.w3.org/2000/svg" viewBox="0 0 18 18"><defs><style>.cls-1{fill:#3d3d3d;}</style></defs><path class="cls-1" d="M7.79,8.88A2.09,2.09,0,0,1,7,7.14a2,2,0,0,1,.69-1.49,2.08,2.08,0,0,1,2.84.07,2.12,2.12,0,0,1-.2,3.17l.18.09a3.46,3.46,0,0,1,2.06,3c0,.33-.1.45-.44.45H6c-.33,0-.45-.13-.42-.46A3.45,3.45,0,0,1,7.67,9Zm4.1,3A2.82,2.82,0,0,0,10.52,9.7a2.78,2.78,0,0,0-3.12.09,2.78,2.78,0,0,0-1.24,2.06ZM9,5.74A1.47,1.47,0,1,0,9,8.67,1.49,1.49,0,0,0,10.5,7.2,1.47,1.47,0,0,0,9,5.74Z"/><path class="cls-1" d="M3.18,9.56a8.15,8.15,0,0,0,.16.86A5.62,5.62,0,0,0,8,14.72a5.64,5.64,0,0,0,5.86-2.54.68.68,0,0,1,.27-.24.3.3,0,0,1,.37.13.31.31,0,0,1,0,.41,11.1,11.1,0,0,1-1,1.24,6.29,6.29,0,0,1-3.81,1.76,6.54,6.54,0,0,1-7.1-5.29c0-.23-.07-.46-.11-.71-.06.06-.11.09-.15.14l-.7.7a.36.36,0,0,1-.51,0,.35.35,0,0,1,0-.51L2.55,8.38a.35.35,0,0,1,.53,0L4.49,9.81a.33.33,0,0,1,0,.51.35.35,0,0,1-.51,0l-.66-.65-.12-.1Z"/><path class="cls-1" d="M15.55,8.51l.81-.81a.5.5,0,0,1,.22-.13.31.31,0,0,1,.37.16.36.36,0,0,1,0,.41l-.13.13L15.5,9.55a.37.37,0,0,1-.61,0L13.53,8.2c-.19-.19-.2-.39,0-.54a.37.37,0,0,1,.54,0l.62.62.13.12,0,0a8.15,8.15,0,0,0-.16-.86,5.73,5.73,0,0,0-4.59-4.3A5.78,5.78,0,0,0,4.13,5.78.77.77,0,0,1,3.87,6a.29.29,0,0,1-.38-.09.32.32,0,0,1,0-.42A8.26,8.26,0,0,1,4,4.76,6.54,6.54,0,0,1,15.29,7.24C15.4,7.64,15.46,8.06,15.55,8.51Z"/></svg>