<svg id="Layer_1" data-name="Layer 1" xmlns="http://www.w3.org/2000/svg" viewBox="0 0 18 18"><defs><style>.cls-1{fill:#3d3d3d;}</style></defs><path class="cls-1" d="M4.2,14.59a6.9,6.9,0,0,0,1.63,1.06A7.33,7.33,0,0,0,15.75,12a7.17,7.17,0,0,0-.6-7A1.63,1.63,0,0,1,15,4.75a.3.3,0,0,1,.06-.45.32.32,0,0,1,.45.12c.21.34.43.68.61,1a8,8,0,0,1-4.81,11.17,7.81,7.81,0,0,1-7.24-1.32l-.25-.18a1.12,1.12,0,0,1,0,.2c0,.31,0,.63,0,1a.3.3,0,0,1-.32.33.29.29,0,0,1-.28-.34c0-.65,0-1.3,0-1.95,0-.13,0-.18.18-.21l1.88-.38c.22-.05.37,0,.41.21a.29.29,0,0,1-.26.37Z"/><path class="cls-1" d="M13.73,3.34,13.25,3A7.38,7.38,0,0,0,1.86,7.14,7.21,7.21,0,0,0,2.8,13a.41.41,0,0,1,.05.09c.11.19.09.35-.07.45a.31.31,0,0,1-.44-.12c-.19-.32-.38-.63-.54-1A8,8,0,0,1,7.05,1.26a7.82,7.82,0,0,1,7,1.51l.08.07.1,0c0-.28,0-.55,0-.82s0-.31,0-.46a.27.27,0,0,1,.26-.27.28.28,0,0,1,.32.21.36.36,0,0,1,0,.18l0,1.91c0,.12,0,.17-.16.19l-1.93.4A.32.32,0,0,1,12.3,4a.3.3,0,0,1,.24-.37l1-.21Z"/><path class="cls-1" d="M7.79,8.88A2.09,2.09,0,0,1,7,7.14a2,2,0,0,1,.69-1.49,2.08,2.08,0,0,1,2.84.07,2.12,2.12,0,0,1-.2,3.17l.18.09a3.46,3.46,0,0,1,2.06,3c0,.33-.1.45-.44.45H6c-.33,0-.45-.13-.42-.46A3.45,3.45,0,0,1,7.67,9Zm4.1,3A2.82,2.82,0,0,0,10.52,9.7a2.78,2.78,0,0,0-3.12.09,2.78,2.78,0,0,0-1.24,2.06ZM9,5.74A1.47,1.47,0,1,0,9,8.67,1.49,1.49,0,0,0,10.5,7.2,1.47,1.47,0,0,0,9,5.74Z"/></svg>