<svg id="Layer_1" data-name="Layer 1" xmlns="http://www.w3.org/2000/svg" viewBox="0 0 18 18"><defs><style>.cls-1{fill:#3d3d3d;}</style></defs><path class="cls-1" d="M7.74,9.6c-.56.27-1.13.52-1.67.81a1.52,1.52,0,0,0-.49.42,2.47,2.47,0,0,0-.42,1.59.16.16,0,0,0,.11.13c.44.13.87.27,1.31.36a12.77,12.77,0,0,0,3.65.15,9.46,9.46,0,0,0,2.35-.49c.12,0,.17-.1.15-.22-.05-.31-.07-.63-.15-.93a1.57,1.57,0,0,0-.94-1.11c-.45-.19-.88-.4-1.31-.62a.25.25,0,0,0-.33,0,1.56,1.56,0,0,1-2.07,0Z"/><path class="cls-1" d="M9,4.78v0l-.4,0A1.58,1.58,0,0,0,7.11,6.16,5,5,0,0,1,7,7.09a1.26,1.26,0,0,0,.3,1.1,3,3,0,0,1,.22.39,1.89,1.89,0,0,0,.77.92,1.48,1.48,0,0,0,2-.65c.18-.3.35-.6.51-.91a1.21,1.21,0,0,0,.11-1,1.64,1.64,0,0,1-.09-.44,1.51,1.51,0,0,0-1-1.5A6.14,6.14,0,0,0,9,4.78Z"/><path class="cls-1" d="M3.49,9.32h.8a.59.59,0,0,0,0-1.17H2.71a.59.59,0,0,0,0,1.17Z"/><path class="cls-1" d="M14.48,9.32h.81a.56.56,0,0,0,.54-.6.56.56,0,0,0-.54-.57H13.71a.59.59,0,0,0,0,1.17Z"/><path class="cls-1" d="M8.42,3.2v.31A.57.57,0,0,0,9,4.05a.54.54,0,0,0,.56-.54,9.73,9.73,0,0,0,0-1.08A.55.55,0,0,0,9,1.89a.57.57,0,0,0-.61.54C8.41,2.69,8.42,3,8.42,3.2Z"/><path class="cls-1" d="M8.42,15.26v.31a.57.57,0,0,0,.61.54.55.55,0,0,0,.56-.54,9.73,9.73,0,0,0,0-1.08A.54.54,0,0,0,9,14a.57.57,0,0,0-.61.54C8.41,14.75,8.42,15,8.42,15.26Z"/></svg>