<svg id="Layer_1" data-name="Layer 1" xmlns="http://www.w3.org/2000/svg" viewBox="0 0 16 16"><defs><style>.cls-1{fill:#3d3d3d;}</style></defs><path class="cls-1" d="M6.58,10.87a5.19,5.19,0,1,1,5.18-5.18A5.19,5.19,0,0,1,6.58,10.87Zm0-9.62A4.44,4.44,0,1,0,11,5.69,4.44,4.44,0,0,0,6.58,1.25Z"/><path class="cls-1" d="M10.26,9.21l-1.2,1,2,2.4.69.82,1.19-1Z"/><path class="cls-1" d="M14.3,14.05l-.81-1-1.19,1c.27.32.53.64.81,1a1.49,1.49,0,0,0,.72.45.56.56,0,0,0,.72-.39A1,1,0,0,0,14.3,14.05Z"/><path class="cls-1" d="M7.58,7.34l.18.18A2.92,2.92,0,0,1,6.62,8.74c-.26.14-.44.06-.52-.23A1.59,1.59,0,0,1,6,8.08c0-.77,0-1.54,0-2.31,0-.11,0-.22,0-.33L6,5.41l-.4.49-.2-.25A4.08,4.08,0,0,1,6.44,4.5c.35-.24.56-.14.61.28a4.87,4.87,0,0,1,0,.54C7.06,6,7,6.7,7,7.39c0,.1,0,.2,0,.3s.07.11.15,0l.42-.33Z"/><path class="cls-1" d="M7,3.22a.65.65,0,0,1-.59.66.45.45,0,0,1-.45-.25.71.71,0,0,1,.26-.93A.52.52,0,0,1,7,3.22Z"/></svg>