<svg id="Layer_1" data-name="Layer 1" xmlns="http://www.w3.org/2000/svg" viewBox="0 0 41 41"><defs><style>.cls-1{fill:#333;}</style></defs><path class="cls-1" d="M20.5,40.8c-5.79,0-11.57,0-17.36,0A2.8,2.8,0,0,1,.25,38.49a3.18,3.18,0,0,1,0-.62q0-17.34,0-34.7a2.8,2.8,0,0,1,3-3q17.34,0,34.68,0a2.8,2.8,0,0,1,2.93,2.93q0,17.37,0,34.74a2.8,2.8,0,0,1-2.92,2.93C32.08,40.81,26.29,40.8,20.5,40.8ZM2.43,5V37.54c0,.9.14,1,1.06,1H37.73c.58,0,.8-.21.82-.79v-.37q0-16,0-32V5ZM27.94,3.74V1.29H24.41V3.74Zm5.29,0V1.28H29.68V3.74ZM35,1.27V3.74H38.5V1.27Z"/><path class="cls-1" d="M36.57,16.58V28.8H15.92V16.58Z"/><path class="cls-1" d="M4.44,16.57h8.77V36.42H4.44Z"/><path class="cls-1" d="M15.91,30.87H36.56v5.56H15.91Z"/><path class="cls-1" d="M25,7.09v7.08H16V7.09Z"/><path class="cls-1" d="M13.42,7.09v7.1h-9V7.09Z"/><path class="cls-1" d="M36.56,14.19h-9V7.08h9Z"/></svg>